<?xml version="1.0" encoding="UTF-8"?>
<svg width="152px" height="32px" viewBox="0 0 152 32" version="1.1" xmlns="http://www.w3.org/2000/svg" xmlns:xlink="http://www.w3.org/1999/xlink">
    <!-- Generator: sketchtool 54.1 (76490) - https://sketchapp.com -->
    <title>7CCFA7A2-481F-434C-921E-DF9D86C5E71E</title>
    <desc>Created with sketchtool.</desc>
    <defs>
        <rect id="path-1" x="0" y="0" width="55.8327332" height="41.033493"></rect>
    </defs>
    <g id="Homepage-update-1/20" stroke="none" stroke-width="1" fill="none" fill-rule="evenodd">
        <g id="YRS-HomePage-1" transform="translate(-1035.000000, -4110.000000)">
            <g id="Homepage/Footer" transform="translate(0.000000, 4084.000000)">
                <g id="YourSeat---Footer-Logo" transform="translate(1029.000000, 24.000000)">
                    <g id="Yourseat-Footer-Logo">
                        <g id="logo/green">
                            <g id="logo/logogram">
                                <mask id="mask-2" fill="white">
                                    <use xlink:href="#path-1"></use>
                                </mask>
                                <g id="Background"></g>
                                <g id="noun_analytics_1313244_000000-copy" mask="url(#mask-2)" fill="#39CB76" fill-rule="nonzero">
                                    <g transform="translate(10.876506, 11.723855)" id="Shape">
                                        <path d="M20.7697556,12.2036431 C20.588097,12.2036431 20.4064383,12.1320863 20.2677675,11.9889728 L14.6276822,6.16783261 C14.3503407,5.88160568 14.3503407,5.41791805 14.6276822,5.13169112 C14.9050236,4.84546418 15.3543168,4.84546418 15.6316583,5.13169112 L21.2717436,10.9528313 C21.5490851,11.2390583 21.5490851,11.7027459 21.2717436,11.9889728 C21.1330729,12.1320863 20.9514142,12.2036431 20.7697556,12.2036431 Z"></path>
                                        <path d="M23.3767666,12.2036431 C23.1951079,12.2036431 23.0134492,12.1320863 22.8747785,11.9889728 C22.597437,11.7027459 22.597437,11.2390583 22.8747785,10.9528313 L29.3673424,4.25225886 C29.6446839,3.96603193 30.0939771,3.96603193 30.3713185,4.25225886 C30.64866,4.53848579 30.64866,5.00217342 30.3713185,5.28840035 L23.8787546,11.9889728 C23.7400839,12.1320863 23.5584252,12.2036431 23.3767666,12.2036431 Z"></path>
                                        <path d="M3.98089025,13.988268 C3.79888487,13.988268 3.61722625,13.9167112 3.4785555,13.7735977 C3.20156071,13.4873708 3.20156071,13.0229676 3.47924889,12.7374562 L10.8572257,5.13169112 C11.1342205,4.84546418 11.584207,4.84546418 11.8612018,5.13169112 C12.1381966,5.41791805 12.1381966,5.88232128 11.8605085,6.16783262 L4.48253168,13.7735978 C4.34420755,13.9167113 4.16254894,13.988268 3.98089025,13.988268 Z"></path>
                                        <path d="M13.2440954,7.18608492 C12.3403089,7.18608492 11.492684,6.82472339 10.8565319,6.16783264 C10.2297402,5.52095977 9.86988968,4.62292279 9.86988968,3.7041343 C9.86988968,1.78355155 11.3834807,0.221468089 13.2440954,0.221468089 C15.10471,0.221468089 16.6186478,1.78355155 16.6186478,3.7041343 C16.6186478,4.61218924 16.2605306,5.5087951 15.6358189,6.16353922 C14.9958535,6.82472339 14.1478819,7.18608492 13.2440954,7.18608492 Z"></path>
                                        <path d="M22.0732617,15.4523187 C20.6647136,15.4523187 19.5186,14.269486 19.5186,12.8161687 C19.5186,12.112766 19.7848478,11.4508662 20.2681154,10.9528313 C21.231877,9.9553305 22.9115263,9.9553305 23.8787547,10.9528313 C24.3616756,11.4501506 24.6275767,12.1120504 24.6275767,12.8161687 C24.6275767,14.269486 23.4818097,15.4523187 22.0732617,15.4523187 Z"></path>
                                        <path d="M2.62815714,17.3643146 C1.1790479,17.3643146 0,16.1471346 0,14.6515989 C0,13.1560632 1.1790479,11.9395987 2.62815714,11.9395987 C3.3371113,11.9395987 3.99787731,12.22511 4.48877175,12.7431808 C4.97966618,13.2383535 5.25631427,13.9202891 5.25631427,14.6515989 C5.2563142,16.1471346 4.0772663,17.3643146 2.62815714,17.3643146 Z"></path>
                                        <path d="M31.3201716,6.12060508 C30.5921503,6.12060508 29.90053,5.8272225 29.3725412,5.29412481 C28.854606,4.75959602 28.560624,4.02470837 28.560624,3.2726471 C28.560624,1.70197682 29.7986069,0.424689124 31.3201716,0.424689124 C32.8417363,0.424689124 34.0797192,1.70197689 34.0797192,3.27264718 C34.0797192,4.84331746 32.8417363,6.12060508 31.3201716,6.12060508 Z"></path>
                                    </g>
                                </g>
                            </g>
                            <text id="LOGO-Copy-4" font-family="Roboto-Black, Roboto" font-size="23.0977444" font-weight="700" fill="#FFFFFF">
                                <tspan x="58.0080338" y="24.2351333">YourSeat</tspan>
                            </text>
                        </g>
                    </g>
                </g>
            </g>
        </g>
    </g>
</svg>