<?xml version="1.0" encoding="UTF-8"?>
<svg width="228px" height="45px" viewBox="0 0 228 45" version="1.1" xmlns="http://www.w3.org/2000/svg" xmlns:xlink="http://www.w3.org/1999/xlink">
    <!-- Generator: sketchtool 54.1 (76490) - https://sketchapp.com -->
    <title>5CA683BA-31D0-427E-A250-51DA774FE5E4</title>
    <desc>Created with sketchtool.</desc>
    <defs>
        <rect id="path-1" x="0" y="0" width="300" height="66.6666641"></rect>
        <rect id="path-3" x="0" y="0" width="77.3516006" height="56.5656548"></rect>
    </defs>
    <g id="Homepage-update-1/20" stroke="none" stroke-width="1" fill="none" fill-rule="evenodd">
        <g id="YRS-Contacts" transform="translate(-256.000000, -33.000000)">
            <g id="Webpage/Main-Nav">
                <g id="YourSeath-Logo-with-tagline" transform="translate(241.000000, 18.181818)">
                    <mask id="mask-2" fill="white">
                        <use xlink:href="#path-1"></use>
                    </mask>
                    <g id="Background"></g>
                    <g id="Group" mask="url(#mask-2)">
                        <g transform="translate(0.000000, 4.040404)" id="logo/green">
                            <g>
                                <g id="logo/logogram">
                                    <mask id="mask-4" fill="white">
                                        <use xlink:href="#path-3"></use>
                                    </mask>
                                    <g id="Background"></g>
                                    <g id="noun_analytics_1313244_000000-copy" mask="url(#mask-4)" fill="#39CB76" fill-rule="nonzero">
                                        <g transform="translate(15.068494, 16.161616)" id="Shape">
                                            <path d="M28.7747662,16.8230148 C28.5230932,16.8230148 28.2714203,16.724372 28.0793035,16.5270867 L20.2654351,8.50250525 C19.8812016,8.10793456 19.8812016,7.46873003 20.2654351,7.07415934 C20.6496686,6.67958864 21.2721269,6.67958864 21.6563604,7.07415934 L29.4702288,15.0987408 C29.8544623,15.4933115 29.8544623,16.132516 29.4702288,16.5270867 C29.278112,16.724372 29.0264391,16.8230148 28.7747662,16.8230148 Z"></path>
                                            <path d="M32.3865627,16.8230148 C32.1348898,16.8230148 31.8832168,16.724372 31.6911,16.5270867 C31.3068665,16.132516 31.3068665,15.4933115 31.6911,15.0987408 L40.6860064,5.86184088 C41.07024,5.46727019 41.6926982,5.46727019 42.0769317,5.86184088 C42.4611652,6.25641157 42.4611652,6.89561609 42.0769317,7.29018678 L33.0820253,16.5270867 C32.8899086,16.724372 32.6382356,16.8230148 32.3865627,16.8230148 Z"></path>
                                            <path d="M5.51519181,19.2831631 C5.26303852,19.2831631 5.01136563,19.1845203 4.81924887,18.987235 C4.43549566,18.5926643 4.43549566,17.9524733 4.82020949,17.5588891 L15.0417817,7.07415934 C15.4255349,6.67958864 16.0489538,6.67958864 16.4327071,7.07415934 C16.8164603,7.46873004 16.8164603,8.10892103 16.4317464,8.50250526 L6.21017422,18.9872351 C6.01853767,19.1845204 5.76686479,19.2831631 5.51519181,19.2831631 Z"></path>
                                            <path d="M18.3485908,9.9061905 C17.0964699,9.9061905 15.9221562,9.40804496 15.0408206,8.50250529 C14.1724529,7.61077552 13.6739099,6.37281 13.6739099,5.10623802 C13.6739099,2.4586686 15.7708643,0.305299075 18.3485908,0.305299075 C20.9263174,0.305299075 23.0237521,2.4586686 23.0237521,5.10623802 C23.0237521,6.35801354 22.5276106,7.59400622 21.6621246,8.4965867 C20.7755058,9.40804496 19.6007118,9.9061905 18.3485908,9.9061905 Z"></path>
                                            <path d="M30.5806652,21.3013922 C28.6292393,21.3013922 27.0413943,19.6708288 27.0413943,17.667396 C27.0413943,16.6977386 27.4102585,15.7852938 28.0797854,15.0987408 C29.4149969,13.723662 31.7420111,13.723662 33.0820255,15.0987408 C33.7510721,15.7843073 34.119456,16.6967522 34.119456,17.667396 C34.1194559,19.6708288 32.5320912,21.3013922 30.5806652,21.3013922 Z"></path>
                                            <path d="M3.64109277,23.9371244 C1.63347265,23.9371244 0,22.2592125 0,20.1975807 C0,18.1359488 1.63347265,16.4590233 3.64109277,16.4590233 C4.62328971,16.4590233 5.53872597,16.8526075 6.21881932,17.5667805 C6.89891267,18.2493879 7.28218555,19.1894525 7.28218555,20.1975807 C7.28218545,22.2592125 5.6487128,23.9371244 3.64109277,23.9371244 Z"></path>
                                            <path d="M43.3914887,8.43740097 C42.3828758,8.43740097 41.4246935,8.03296604 40.6932089,7.29807809 C39.9756528,6.56121731 39.5683653,5.54815706 39.5683653,4.51142256 C39.5683653,2.34621589 41.2834875,0.585444147 43.3914887,0.585444147 C45.4994898,0.585444147 47.2146119,2.34621599 47.2146119,4.51142266 C47.2146119,6.67662933 45.4994897,8.43740097 43.3914887,8.43740097 Z"></path>
                                        </g>
                                    </g>
                                </g>
                                <text id="LOGO-Copy-4" font-family="Roboto-Black, Roboto" font-size="32" font-weight="700" fill="#FFFFFF">
                                    <tspan x="80.3652968" y="34.2171709">YourSeat</tspan>
                                </text>
                            </g>
                        </g>
                    </g>
                    <text id="Transition-into-Tomo" mask="url(#mask-2)" font-family="Roboto-Regular, Roboto" font-size="14" font-weight="normal" fill="#FFFFFF" fill-opacity="0.601505888">
                        <tspan x="84" y="58.530301">Transition into Tomorrow</tspan>
                    </text>
                </g>
            </g>
        </g>
    </g>
</svg>